<svg id="Laag_1" data-name="Laag 1" xmlns="http://www.w3.org/2000/svg" viewBox="0 0 28.06 28.2"><defs><style>.cls-1{fill:#fff;}</style></defs><g id="LieferandoDE_Full_Colour" data-name="LieferandoDE Full Colour"><path id="House" class="cls-1" d="M13.14.3a1.5,1.5,0,0,1,1.8,0c1.4.9,2.7,1.8,4,2.8,0,0,.3.2.4-.2a4.21,4.21,0,0,1,.1-1.5.75.75,0,0,1,.7-.5s1.5.1,2.5.2a1,1,0,0,1,.8.9s.6,4.2.8,5.7a4.76,4.76,0,0,0,1.2,2.1,39.49,39.49,0,0,1,2.5,3.8s.5,1.1-.6,1.2c0,0-2.1.2-2.3.3a.56.56,0,0,0-.5.6h0s-.1,7.3-.6,10.9c0,0-.1,1.4-.9,1.4,0,0-2.1-.1-2.6-.1,0,0-.2,0-.2-.3,0,0,1.1-11.4.4-17.2a1,1,0,0,0-.6-.9s-.5-.2-1,.5a18.13,18.13,0,0,0-3.4,10.3,7.13,7.13,0,0,0,.2,2.3s.2.3,1.1.4l1.1.2s.2,0,.2.3c0,0-.3,3.4-.3,4a.58.58,0,0,1-.1.4.56.56,0,0,1-.4.1h-5.5a.49.49,0,0,1-.3-.1c-.1-.2-.3-4.3-.3-4.9,0-.1.1-.2.2-.3a3,3,0,0,0,1.4-2.2,7.55,7.55,0,0,0,0-1.9s.2-6.4.2-7.5c0,0,.1-.3-.4-.4a.38.38,0,0,0-.48.23.64.64,0,0,1,0,.07h0s-.3,4.3-.3,5.9c0,0,.1,1.1-.6,1.1,0,0-.7.1-.8-.8,0,0,.1-4.1.2-6.2a.42.42,0,0,0-.4-.4c-.2-.1-.5.1-.5.4h0s-.3,4-.3,6c0,0,.1,1-.7,1,0,0-.7.1-.7-.8,0,0,.2-5.7.2-6.1a.45.45,0,0,0-.4-.5h-.1c-.2,0-.5.1-.5.4v.1S7,17.9,7,19.9a3.65,3.65,0,0,0,1.5,2.9.36.36,0,0,1,.2.3s.2,3.6.3,4.8c0,0,.1.3-.2.3L5,28s-.6.1-.8-.7a96.2,96.2,0,0,1-.7-11.5.55.55,0,0,0-.5-.6s-1.9-.2-2.4-.3a.84.84,0,0,1-.6-1c0-.1.1-.1.1-.2A41.36,41.36,0,0,1,13.14.3Z" transform="translate(0 0)"/></g></svg>